<svg width="21" height="25" viewBox="0 0 21 25" fill="none" xmlns="http://www.w3.org/2000/svg">
<g clip-path="url(#clip0_58_547)">
<path fill-rule="evenodd" clip-rule="evenodd" d="M18.8922 15.25L17.9547 7.75C17.8365 6.81226 17.0389 6.10905 16.0938 6.10938H2.65625C1.96589 6.10938 1.40625 6.66902 1.40625 7.35938V14.2344C1.40625 14.9247 1.96589 15.4844 2.65625 15.4844H6.02031L8.97188 21.3891C9.07785 21.6008 9.29443 21.7345 9.53125 21.7344C11.2571 21.7344 12.6562 20.3353 12.6562 18.6094V17.3594H17.0312C17.5695 17.3596 18.0819 17.1284 18.4379 16.7248C18.794 16.3212 18.9595 15.784 18.8922 15.25V15.25ZM5.78125 14.2344H2.65625V7.35938H5.78125V14.2344ZM17.5 15.8977C17.3821 16.0332 17.2109 16.1106 17.0312 16.1094H12.0312C11.6861 16.1094 11.4062 16.3892 11.4062 16.7344V18.6094C11.4065 19.5033 10.7757 20.273 9.89922 20.4484L7.03125 14.7117V7.35938H16.0938C16.4088 7.35927 16.6747 7.59367 16.7141 7.90625L17.6516 15.4062C17.6753 15.5843 17.6199 15.7639 17.5 15.8977V15.8977Z" fill="#E56E1A"/>
</g>
<defs>
<clipPath id="clip0_58_547">
<rect width="20" height="20" fill="white" transform="translate(0.15625 2.98438)"/>
</clipPath>
</defs>
</svg>
