<svg width="21" height="21" viewBox="0 0 21 21" fill="none" xmlns="http://www.w3.org/2000/svg">
<path fill-rule="evenodd" clip-rule="evenodd" d="M19.8119 18.9694L15.1178 14.2762C17.9442 10.883 17.6017 5.86693 14.3404 2.88935C11.0791 -0.0882368 6.05259 0.0259986 2.92992 3.14867C-0.192751 6.27134 -0.306987 11.2978 2.6706 14.5591C5.64818 17.8204 10.6643 18.1629 14.0575 15.3366L18.7506 20.0306C19.0437 20.3237 19.5188 20.3237 19.8119 20.0306C20.1049 19.7376 20.1049 19.2624 19.8119 18.9694V18.9694ZM2.03125 9C2.03125 5.27208 5.05333 2.25 8.78125 2.25C12.5092 2.25 15.5312 5.27208 15.5312 9C15.5312 12.7279 12.5092 15.75 8.78125 15.75C5.05504 15.7459 2.03538 12.7262 2.03125 9V9Z" fill="#C7A894"/>
</svg>
