<svg width="20" height="21" viewBox="0 0 20 21" fill="none" xmlns="http://www.w3.org/2000/svg">
<g clip-path="url(#clip0_58_541)">
<path fill-rule="evenodd" clip-rule="evenodd" d="M18.2812 7.24375C17.9252 6.84031 17.4131 6.60927 16.875 6.60938H12.5V5.35938C12.5 3.63349 11.1009 2.23438 9.375 2.23438C9.13818 2.23421 8.9216 2.3679 8.81563 2.57969L5.86406 8.48438H2.5C1.80964 8.48438 1.25 9.04402 1.25 9.73438V16.6094C1.25 17.2997 1.80964 17.8594 2.5 17.8594H15.9375C16.8827 17.8597 17.6803 17.1565 17.7984 16.2188L18.7359 8.71875C18.8032 8.18461 18.6375 7.64734 18.2812 7.24375V7.24375ZM2.5 9.73438H5.625V16.6094H2.5V9.73438ZM17.4953 8.5625L16.5578 16.0625C16.5184 16.3751 16.2526 16.6095 15.9375 16.6094H6.875V9.25703L9.74297 3.52031C10.6195 3.69574 11.2502 4.4655 11.25 5.35938V7.23438C11.25 7.57955 11.5298 7.85938 11.875 7.85938H16.875C17.0544 7.85931 17.2252 7.93636 17.3439 8.0709C17.4626 8.20543 17.5177 8.38449 17.4953 8.5625V8.5625Z" fill="#E56E1A"/>
</g>
<defs>
<clipPath id="clip0_58_541">
<rect width="20" height="20" fill="white" transform="translate(0 0.984375)"/>
</clipPath>
</defs>
</svg>
